#Comment line ignore any data following # character 
#Hierarchical Translation and Rotation (.htr) file 
[Header]	
#Header keywords are followed by a single value 
FileType HTR		#Single word string
DataType HTRS		#Translation followed by rotation and scale data
FileVersion 1		#integer
NumSegments 84		#integer
NumFrames 2		#integer
DataFrameRate 30		#integer, data frame rate in this file
EulerRotationOrder ZYX
CalibrationUnits mm
RotationUnits Degrees
GlobalAxisofGravity Y
BoneLengthAxis Y
ScaleFactor 1.00
[SegmentNames&Hierarchy]
#CHILD	PARENT
MASTER GLOBAL
root MASTER
chest root
L_mid_tent01 root
R_mid_tent01 root
spine01 root
Bip01_Neck chest
L_humerus chest
R_humerus chest
weapon_bone chest
Bip01_Head Bip01_Neck
eye_left_bone Bip01_Head
eye_right_bone Bip01_Head
L_forearm L_humerus
L_front_hand L_forearm
L_weapon_bone L_forearm
L_front_hand01_01 L_front_hand
L_front_hand02_01 L_front_hand
L_front_hand03_01 L_front_hand
L_front_hand01_02 L_front_hand01_01
L_front_hand02_02 L_front_hand02_01
L_front_hand03_02 L_front_hand03_01
R_forearm R_humerus
R_front_hand R_forearm
R_weapon_bone R_forearm
R_front_hand01_01 R_front_hand
R_front_hand02_01 R_front_hand
R_front_hand03_01 R_front_hand
R_front_hand01_02 R_front_hand01_01
R_front_hand02_02 R_front_hand02_01
R_front_hand03_02 R_front_hand03_01
null_rope01_connect L_mid_tent01
Rope1_Seg01 null_rope01_connect
Rope1_Seg02 Rope1_Seg01
Rope1_Seg03 Rope1_Seg02
Rope1_Seg04 Rope1_Seg03
Rope1_Seg05 Rope1_Seg04
Rope1_Seg06 Rope1_Seg05
Rope1_Seg07 Rope1_Seg06
Rope1_Seg09 Rope1_Seg07
L_mid_hand01 Rope1_Seg09
L_mid_hand02 Rope1_Seg09
L_mid_hand03 Rope1_Seg09
null_rope02_connect R_mid_tent01
Rope2_Seg01 null_rope02_connect
Rope2_Seg02 Rope2_Seg01
Rope2_Seg03 Rope2_Seg02
Rope2_Seg04 Rope2_Seg03
Rope2_Seg05 Rope2_Seg04
Rope2_Seg06 Rope2_Seg05
Rope2_Seg07 Rope2_Seg06
Rope2_Seg09 Rope2_Seg07
R_mid_hand01 Rope2_Seg09
R_mid_hand02 Rope2_Seg09
R_mid_hand03 Rope2_Seg09
spine02 spine01
spine03 spine02
pelvis spine03
null_rope03_connect pelvis
null_rope04_connect pelvis
Rope3_Seg01 null_rope03_connect
Rope3_Seg02 Rope3_Seg01
Rope3_Seg03 Rope3_Seg02
Rope3_Seg04 Rope3_Seg03
Rope3_Seg05 Rope3_Seg04
Rope3_Seg06 Rope3_Seg05
Rope3_Seg07 Rope3_Seg06
Rope3_Seg08 Rope3_Seg07
Rope3_Seg09 Rope3_Seg08
R_rear_hand01 Rope3_Seg09
R_rear_hand02 Rope3_Seg09
R_rear_hand03 Rope3_Seg09
Rope4_Seg01 null_rope04_connect
Rope4_Seg02 Rope4_Seg01
Rope4_Seg03 Rope4_Seg02
Rope4_Seg04 Rope4_Seg03
Rope4_Seg05 Rope4_Seg04
Rope4_Seg06 Rope4_Seg05
Rope4_Seg07 Rope4_Seg06
Rope4_Seg08 Rope4_Seg07
Rope4_Seg09 Rope4_Seg08
L_rear_hand01 Rope4_Seg09
L_rear_hand02 Rope4_Seg09
L_rear_hand03 Rope4_Seg09
[BasePosition]
#SegmentName Tx, Ty, Tz, Rx, Ry, Rz, BoneLength
MASTER 0.000000 0.000000 0.000000 -90.000000 0.000000 0.000000 10.000000 
root 0.000000 0.000000 0.000000 0.000000 0.000000 0.000000 10.000000 
chest 0.000000 0.000000 0.000000 0.000000 0.000000 0.000000 10.000000 
L_mid_tent01 0.000000 0.000000 0.000000 0.000000 0.000000 0.000000 10.000000 
R_mid_tent01 0.000000 0.000000 0.000000 0.000000 0.000000 0.000000 10.000000 
spine01 0.000000 0.000000 0.000000 0.000000 0.000000 0.000000 10.000000 
Bip01_Neck 0.000000 0.000000 0.000000 0.000000 0.000000 0.000000 10.000000 
L_humerus 0.000000 0.000000 0.000000 0.000000 0.000000 0.000000 10.000000 
R_humerus 0.000000 0.000000 0.000000 0.000000 0.000000 0.000000 10.000000 
weapon_bone 0.000000 0.000000 0.000000 0.000000 0.000000 0.000000 10.000000 
Bip01_Head 0.000000 0.000000 0.000000 0.000000 0.000000 0.000000 10.000000 
eye_left_bone 0.000000 0.000000 0.000000 0.000000 0.000000 0.000000 10.000000 
eye_right_bone 0.000000 0.000000 0.000000 0.000000 0.000000 0.000000 10.000000 
L_forearm 0.000000 0.000000 0.000000 0.000000 0.000000 0.000000 10.000000 
L_front_hand 0.000000 0.000000 0.000000 0.000000 0.000000 0.000000 10.000000 
L_weapon_bone 0.000000 0.000000 0.000000 0.000000 0.000000 0.000000 10.000000 
L_front_hand01_01 0.000000 0.000000 0.000000 0.000000 0.000000 0.000000 10.000000 
L_front_hand02_01 0.000000 0.000000 0.000000 0.000000 0.000000 0.000000 10.000000 
L_front_hand03_01 0.000000 0.000000 0.000000 0.000000 0.000000 0.000000 10.000000 
L_front_hand01_02 0.000000 0.000000 0.000000 0.000000 0.000000 0.000000 10.000000 
L_front_hand02_02 0.000000 0.000000 0.000000 0.000000 0.000000 0.000000 10.000000 
L_front_hand03_02 0.000000 0.000000 0.000000 0.000000 0.000000 0.000000 10.000000 
R_forearm 0.000000 0.000000 0.000000 0.000000 0.000000 0.000000 10.000000 
R_front_hand 0.000000 0.000000 0.000000 0.000000 0.000000 0.000000 10.000000 
R_weapon_bone 0.000000 0.000000 0.000000 0.000000 0.000000 0.000000 10.000000 
R_front_hand01_01 0.000000 0.000000 0.000000 0.000000 0.000000 0.000000 10.000000 
R_front_hand02_01 0.000000 0.000000 0.000000 0.000000 0.000000 0.000000 10.000000 
R_front_hand03_01 0.000000 0.000000 0.000000 0.000000 0.000000 0.000000 10.000000 
R_front_hand01_02 0.000000 0.000000 0.000000 0.000000 0.000000 0.000000 10.000000 
R_front_hand02_02 0.000000 0.000000 0.000000 0.000000 0.000000 0.000000 10.000000 
R_front_hand03_02 0.000000 0.000000 0.000000 0.000000 0.000000 0.000000 10.000000 
null_rope01_connect 0.000000 0.000000 0.000000 0.000000 0.000000 0.000000 10.000000 
Rope1_Seg01 0.000000 0.000000 0.000000 0.000000 0.000000 0.000000 10.000000 
Rope1_Seg02 0.000000 0.000000 0.000000 0.000000 0.000000 0.000000 10.000000 
Rope1_Seg03 0.000000 0.000000 0.000000 0.000000 0.000000 0.000000 10.000000 
Rope1_Seg04 0.000000 0.000000 0.000000 0.000000 0.000000 0.000000 10.000000 
Rope1_Seg05 0.000000 0.000000 0.000000 0.000000 0.000000 0.000000 10.000000 
Rope1_Seg06 0.000000 0.000000 0.000000 0.000000 0.000000 0.000000 10.000000 
Rope1_Seg07 0.000000 0.000000 0.000000 0.000000 0.000000 0.000000 10.000000 
Rope1_Seg09 0.000000 0.000000 0.000000 0.000000 0.000000 0.000000 10.000000 
L_mid_hand01 0.000000 0.000000 0.000000 0.000000 0.000000 0.000000 10.000000 
L_mid_hand02 0.000000 0.000000 0.000000 0.000000 0.000000 0.000000 10.000000 
L_mid_hand03 0.000000 0.000000 0.000000 0.000000 0.000000 0.000000 10.000000 
null_rope02_connect 0.000000 0.000000 0.000000 0.000000 0.000000 0.000000 10.000000 
Rope2_Seg01 0.000000 0.000000 0.000000 0.000000 0.000000 0.000000 10.000000 
Rope2_Seg02 0.000000 0.000000 0.000000 0.000000 0.000000 0.000000 10.000000 
Rope2_Seg03 0.000000 0.000000 0.000000 0.000000 0.000000 0.000000 10.000000 
Rope2_Seg04 0.000000 0.000000 0.000000 0.000000 0.000000 0.000000 10.000000 
Rope2_Seg05 0.000000 0.000000 0.000000 0.000000 0.000000 0.000000 10.000000 
Rope2_Seg06 0.000000 0.000000 0.000000 0.000000 0.000000 0.000000 10.000000 
Rope2_Seg07 0.000000 0.000000 0.000000 0.000000 0.000000 0.000000 10.000000 
Rope2_Seg09 0.000000 0.000000 0.000000 0.000000 0.000000 0.000000 10.000000 
R_mid_hand01 0.000000 0.000000 0.000000 0.000000 0.000000 0.000000 10.000000 
R_mid_hand02 0.000000 0.000000 0.000000 0.000000 0.000000 0.000000 10.000000 
R_mid_hand03 0.000000 0.000000 0.000000 0.000000 0.000000 0.000000 10.000000 
spine02 0.000000 0.000000 0.000000 0.000000 0.000000 0.000000 10.000000 
spine03 0.000000 0.000000 0.000000 0.000000 0.000000 0.000000 10.000000 
pelvis 0.000000 0.000000 0.000000 0.000000 0.000000 0.000000 10.000000 
null_rope03_connect 0.000000 0.000000 0.000000 0.000000 0.000000 0.000000 10.000000 
null_rope04_connect 0.000000 0.000000 0.000000 0.000000 0.000000 0.000000 10.000000 
Rope3_Seg01 0.000000 0.000000 0.000000 0.000000 0.000000 0.000000 10.000000 
Rope3_Seg02 0.000000 0.000000 0.000000 0.000000 0.000000 0.000000 10.000000 
Rope3_Seg03 0.000000 0.000000 0.000000 0.000000 0.000000 0.000000 10.000000 
Rope3_Seg04 0.000000 0.000000 0.000000 0.000000 0.000000 0.000000 10.000000 
Rope3_Seg05 0.000000 0.000000 0.000000 0.000000 0.000000 0.000000 10.000000 
Rope3_Seg06 0.000000 0.000000 0.000000 0.000000 0.000000 0.000000 10.000000 
Rope3_Seg07 0.000000 0.000000 0.000000 0.000000 0.000000 0.000000 10.000000 
Rope3_Seg08 0.000000 0.000000 0.000000 0.000000 0.000000 0.000000 10.000000 
Rope3_Seg09 0.000000 0.000000 0.000000 0.000000 0.000000 0.000000 10.000000 
R_rear_hand01 0.000000 0.000000 0.000000 0.000000 0.000000 0.000000 10.000000 
R_rear_hand02 0.000000 0.000000 0.000000 0.000000 0.000000 0.000000 10.000000 
R_rear_hand03 0.000000 0.000000 0.000000 0.000000 0.000000 0.000000 10.000000 
Rope4_Seg01 0.000000 0.000000 0.000000 0.000000 0.000000 0.000000 10.000000 
Rope4_Seg02 0.000000 0.000000 0.000000 0.000000 0.000000 0.000000 10.000000 
Rope4_Seg03 0.000000 0.000000 0.000000 0.000000 0.000000 0.000000 10.000000 
Rope4_Seg04 0.000000 0.000000 0.000000 0.000000 0.000000 0.000000 10.000000 
Rope4_Seg05 0.000000 0.000000 0.000000 0.000000 0.000000 0.000000 10.000000 
Rope4_Seg06 0.000000 0.000000 0.000000 0.000000 0.000000 0.000000 10.000000 
Rope4_Seg07 0.000000 0.000000 0.000000 0.000000 0.000000 0.000000 10.000000 
Rope4_Seg08 0.000000 0.000000 0.000000 0.000000 0.000000 0.000000 10.000000 
Rope4_Seg09 0.000000 0.000000 0.000000 0.000000 0.000000 0.000000 10.000000 
L_rear_hand01 0.000000 0.000000 0.000000 0.000000 0.000000 0.000000 10.000000 
L_rear_hand02 0.000000 0.000000 0.000000 0.000000 0.000000 0.000000 10.000000 
L_rear_hand03 0.000000 0.000000 0.000000 0.000000 0.000000 0.000000 10.000000 
#Beginning of Data. Separated by tabs
#Fr	Tx	Ty	Tz	Rx	Ry	Rz	SF
[MASTER]
8 -1219.077759 1108.376099 817.861389 0.001660 0.001660 0.001660 1839.441650
9 -1394.921143 1268.329834 1012.242798 0.001660 0.001660 0.001660 2139.883301
[root]
8 -9.952545 -72.566216 1484.450684 -124.670311 -20.333008 -54.763035 1486.256592
9 2.363281 -76.690063 1377.775513 -124.733521 -19.827415 -54.433086 1379.910278
[chest]
8 -84.512650 -34.090519 0.000000 -6.701295 -2.619099 172.201752 91.129311
9 -84.512650 -34.090519 0.000000 -9.569591 -4.570589 172.437637 91.129311
[L_mid_tent01]
8 27.299055 22.179087 -249.918716 0.353361 14.985002 69.943573 252.381699
9 27.299051 22.179085 -249.918716 0.688135 4.196842 71.327698 252.381683
[R_mid_tent01]
8 23.228794 24.509907 226.238495 168.622986 -18.794060 72.577217 228.744751
9 23.228794 24.509907 226.238495 168.912964 -19.491768 70.963928 228.744751
[spine01]
8 -0.361383 -0.195265 0.000000 0.001954 0.001301 22.683720 0.410763
9 -0.361383 -0.195265 0.000000 0.001954 0.001300 22.745935 0.410763
[Bip01_Neck]
8 165.484543 71.581718 0.000119 176.643677 -1.657967 43.431911 180.302734
9 165.484543 71.581718 0.000119 176.643677 -1.657967 43.431911 180.302734
[L_humerus]
8 -13.983130 -135.272980 -120.471481 153.905945 69.985886 -114.528954 181.680161
9 -13.983130 -135.272980 -120.471481 150.337708 71.988525 -118.278702 181.680161
[R_humerus]
8 -13.983309 -135.273102 125.287651 -170.451614 -65.112015 -94.591034 184.909012
9 -13.983309 -135.273102 125.287651 -169.653885 -66.452126 -95.440475 184.909012
[weapon_bone]
8 235.964890 -300.705902 0.000000 0.000000 -89.951546 -128.212341 382.234833
9 235.964890 -300.705902 0.000000 0.000000 -89.951546 -128.212341 382.234833
[Bip01_Head]
8 213.437103 185.735580 11.518631 7.808062 4.608490 -43.868061 283.170959
9 213.432755 185.747375 11.366730 9.851602 5.248484 -43.853466 283.169250
[eye_left_bone]
8 -24.626970 125.451866 -64.772606 0.000000 -90.000000 -99.840431 143.318359
9 -24.626970 125.451866 -64.772606 0.000000 -90.000000 -99.840431 143.318359
[eye_right_bone]
8 -24.626970 125.451866 64.327362 0.000000 -89.965736 80.156380 143.117676
9 -24.626970 125.451866 64.327362 0.000000 -89.965736 80.156380 143.117676
[L_forearm]
8 322.776093 0.000000 -0.000119 0.000120 -0.002344 -95.854111 322.776093
9 322.776093 0.000000 -0.000119 0.000121 -0.002344 -95.907410 322.776093
[L_front_hand]
8 241.149185 -0.042021 -3.300071 -179.299042 -1.836581 -27.421061 241.171753
9 241.149185 -0.042021 -3.300071 -179.996002 -1.838583 -27.424650 241.171753
[L_weapon_bone]
8 156.183838 0.000000 0.000000 0.000014 0.000007 0.000001 156.183838
9 156.183838 0.000000 0.000000 0.000014 0.000007 0.000001 156.183838
[L_front_hand01_01]
8 86.095154 20.947098 -0.655860 -0.366594 -0.477154 75.385574 88.609184
9 86.095154 20.947098 -0.655860 -0.365501 -0.477992 75.123314 88.609184
[L_front_hand02_01]
8 86.935165 -11.437475 24.513514 154.399796 -59.883835 -61.369587 91.046425
9 86.935165 -11.437475 24.513514 153.994522 -59.773895 -60.897579 91.046425
[L_front_hand03_01]
8 86.637497 -14.123976 -20.424902 -153.913849 58.118122 -62.702866 90.126129
9 86.637497 -14.123976 -20.424902 -153.539398 58.003120 -62.263916 90.126129
[L_front_hand01_02]
8 71.020905 -0.000179 0.000030 0.000323 -0.002325 -105.828911 71.020905
9 71.020905 -0.000179 0.000030 0.000322 -0.002325 -105.781326 71.020905
[L_front_hand02_02]
8 71.020927 -0.000119 0.000060 0.000323 -0.002325 -105.828911 71.020927
9 71.020927 -0.000119 0.000060 0.000322 -0.002325 -105.781326 71.020927
[L_front_hand03_02]
8 71.020905 -0.000060 0.000060 0.000323 -0.002325 -105.828911 71.020905
9 71.020905 -0.000060 0.000060 0.000322 -0.002325 -105.781326 71.020905
[R_forearm]
8 322.776428 -0.000060 0.000030 0.209498 0.012685 -94.392998 322.776428
9 322.776428 -0.000060 0.000030 0.209493 0.012759 -94.433441 322.776428
[R_front_hand]
8 238.847015 -0.006795 2.210259 -2.727831 -10.641874 -26.314604 238.857239
9 238.847015 -0.006795 2.210259 -2.839888 -10.642831 -26.315001 238.857239
[R_weapon_bone]
8 155.664093 0.002503 -0.000030 0.003487 0.001180 -90.988930 155.664078
9 155.664093 0.002503 -0.000030 0.003487 0.001180 -90.988914 155.664078
[R_front_hand01_01]
8 87.624611 14.231146 22.918642 -154.633499 -59.950619 61.746044 91.683487
9 87.624611 14.231146 22.918642 -153.951385 -59.756760 60.953682 91.683487
[R_front_hand02_01]
8 89.356956 14.367283 -19.491137 154.602661 58.302849 63.744389 92.579636
9 89.356956 14.367283 -19.491137 153.963715 58.112652 62.995510 92.579636
[R_front_hand03_01]
8 87.286232 -22.307278 -0.143439 0.162155 -0.423168 -75.767921 90.091743
9 87.286232 -22.307278 -0.143439 0.156617 -0.426811 -75.329918 90.091743
[R_front_hand01_02]
8 71.020905 0.000060 0.000119 0.002323 -0.000334 106.381714 71.020905
9 71.020905 0.000060 0.000119 0.002323 -0.000334 106.381714 71.020905
[R_front_hand02_02]
8 71.020844 -0.000030 -0.000119 0.002323 -0.000334 106.381714 71.020836
9 71.020844 -0.000030 -0.000119 0.002323 -0.000334 106.381714 71.020836
[R_front_hand03_02]
8 71.020905 0.000000 0.000030 0.002323 -0.000334 106.381714 71.020905
9 71.020905 0.000000 0.000030 0.002323 -0.000334 106.381714 71.020905
[null_rope01_connect]
8 328.732483 0.000000 -0.000238 171.918015 -47.560703 -116.011513 328.732483
9 328.732483 0.000000 -0.000238 155.879364 -51.086376 -105.436668 328.732483
[Rope1_Seg01]
8 -0.000005 -0.000033 0.000153 14.388541 -14.397873 -127.559059 0.000156
9 -0.000006 -0.000033 0.000153 -10.088438 -18.394316 -131.533371 0.000156
[Rope1_Seg02]
8 139.999863 -0.000179 0.000000 -16.898561 5.841777 -20.649752 139.999863
9 139.999863 -0.000179 0.000000 -1.826921 9.024056 -10.950191 139.999863
[Rope1_Seg03]
8 139.999924 0.000060 -0.000060 -7.483616 18.744301 -28.686525 139.999924
9 139.999924 0.000060 -0.000060 -0.317421 17.797676 -17.202356 139.999924
[Rope1_Seg04]
8 139.999924 -0.000060 -0.000119 -4.870133 15.479905 -28.828760 139.999924
9 139.999924 -0.000060 -0.000119 -5.997303 18.176157 -27.835182 139.999924
[Rope1_Seg05]
8 139.999832 0.000119 -0.000060 0.889374 6.376661 -15.926002 139.999832
9 139.999832 0.000119 -0.000060 -0.156760 4.409505 -22.565432 139.999832
[Rope1_Seg06]
8 139.999954 0.000119 -0.000060 0.938650 2.701310 -6.059200 139.999954
9 139.999954 0.000119 -0.000060 0.972930 2.175485 -7.851397 139.999954
[Rope1_Seg07]
8 139.999985 0.000060 0.000000 0.726022 1.443192 -3.382766 139.999985
9 139.999985 0.000060 0.000000 0.722364 1.180125 -4.022758 139.999985
[Rope1_Seg09]
8 121.602913 0.000119 -0.000089 -89.793175 -1.359789 0.847147 121.602913
9 121.602913 0.000119 -0.000089 -89.793175 -1.359789 0.847147 121.602913
[L_mid_hand01]
8 103.859421 1.038730 8.195221 126.075401 -65.098549 -33.991913 104.187431
9 103.859421 1.038730 8.195221 122.214584 -62.281197 -29.682938 104.187431
[L_mid_hand02]
8 105.572853 -4.139662 -10.864139 -166.035263 42.723965 -69.273842 106.211075
9 105.572853 -4.139662 -10.864139 -163.055786 41.815422 -64.846161 106.211075
[L_mid_hand03]
8 104.641464 17.579376 -3.913581 -7.014418 17.452778 71.596474 106.179977
9 104.641464 17.579376 -3.913581 -8.059160 17.002192 68.062866 106.179977
[null_rope02_connect]
8 328.732849 0.000179 -0.000119 -57.708179 40.456638 79.724312 328.732849
9 328.732849 0.000179 -0.000119 -58.420113 39.705902 77.974503 328.732849
[Rope2_Seg01]
8 0.000043 0.000139 0.000019 1.493165 38.956104 -63.502701 0.000147
9 0.000044 0.000142 0.000022 -16.519991 30.529276 -79.621574 0.000150
[Rope2_Seg02]
8 139.999741 -0.000060 -0.000119 3.804788 8.043139 4.402348 139.999756
9 139.999741 -0.000060 -0.000119 11.585372 10.317470 17.180647 139.999756
[Rope2_Seg03]
8 140.000107 0.000030 0.000000 4.333619 4.310457 8.517565 140.000107
9 140.000107 0.000030 0.000000 15.740878 12.790225 27.346685 140.000107
[Rope2_Seg04]
8 139.999802 0.000000 -0.000060 5.065264 64.308472 14.433918 139.999802
9 139.999802 0.000000 -0.000060 7.056127 18.767004 13.572659 139.999802
[Rope2_Seg05]
8 139.999985 -0.000060 0.000119 -21.050369 31.541962 2.358842 139.999985
9 139.999985 -0.000060 0.000119 -10.800197 48.442303 -15.851394 139.999985
[Rope2_Seg06]
8 139.999893 -0.000030 -0.000119 -7.517715 4.456629 2.446950 139.999893
9 139.999893 -0.000030 -0.000119 -11.573132 23.160488 -4.315574 139.999893
[Rope2_Seg07]
8 139.999893 0.000060 -0.000060 -4.385196 2.049077 1.502330 139.999893
9 139.999893 0.000060 -0.000060 -9.707430 7.228110 0.640369 139.999893
[Rope2_Seg09]
8 121.338966 0.000089 -0.000060 33.793236 -1.359788 -0.847141 121.338966
9 121.338966 0.000089 -0.000060 33.793236 -1.359788 -0.847141 121.338966
[R_mid_hand01]
8 104.680779 11.144459 -10.335981 -17.548510 44.833435 68.572052 105.778534
9 104.680779 11.144459 -10.335981 -19.035425 44.336292 66.455589 105.778534
[R_mid_hand02]
8 104.070427 2.443552 8.231699 51.203640 -66.683899 36.975819 104.424065
9 104.070427 2.443552 8.231699 53.394081 -65.425781 34.575901 104.424065
[R_mid_hand03]
8 106.028137 -11.221827 -5.996406 -176.709671 15.475002 -75.137619 106.788818
9 106.028137 -11.221827 -5.996406 -176.276184 15.379540 -73.491829 106.788818
[spine02]
8 129.756927 0.001550 0.000119 -1.021981 -3.932479 6.706543 129.756927
9 129.756927 0.001550 0.000119 -1.014480 -3.933427 6.631938 129.756927
[spine03]
8 78.614021 0.081768 -4.898990 1.042116 4.146060 4.252038 78.766556
9 78.614021 0.081765 -4.898989 1.046659 4.145450 4.309157 78.766556
[pelvis]
8 169.435242 0.051022 0.000000 0.019386 -0.190247 -10.641955 169.435257
9 169.435242 0.051022 0.000000 0.019229 -0.190263 -10.547583 169.435257
[null_rope03_connect]
8 -1.257226 -2.466202 137.391083 149.953979 -51.597073 -52.197742 137.418976
9 -1.257226 -2.466202 137.391083 149.451050 -51.153759 -52.175999 137.418976
[null_rope04_connect]
8 -1.259640 -2.480268 -137.844437 149.953979 -51.597073 -52.197742 137.872513
9 -1.259640 -2.480268 -137.844437 149.451050 -51.153759 -52.175999 137.872513
[Rope3_Seg01]
8 0.000000 0.000000 0.000000 10.064374 -3.529487 -38.084339 0.000000
9 0.000000 0.000000 0.000000 6.946057 -5.539303 -33.894348 0.000000
[Rope3_Seg02]
8 139.999924 -0.000119 0.000060 -1.638972 7.627703 16.136875 139.999924
9 139.999924 -0.000119 0.000060 -0.817548 8.717656 16.424200 139.999924
[Rope3_Seg03]
8 139.999924 -0.000119 0.000119 -96.101547 12.744859 36.498104 139.999924
9 139.999924 -0.000119 0.000119 -146.490921 17.170027 37.645622 139.999924
[Rope3_Seg04]
8 139.999924 0.000119 0.000000 -58.516956 -32.680305 7.698164 139.999924
9 139.999924 0.000119 0.000000 -11.056643 -26.264301 -20.745598 139.999924
[Rope3_Seg05]
8 139.999924 -0.000238 0.000060 -5.244858 -21.992165 -14.396838 139.999924
9 139.999924 -0.000238 0.000060 1.629254 -12.476933 -18.192726 139.999924
[Rope3_Seg06]
8 139.999893 -0.000119 -0.000060 -0.357460 -11.243492 -9.196730 139.999893
9 139.999893 -0.000119 -0.000060 1.074545 -7.522186 -11.134366 139.999893
[Rope3_Seg07]
8 139.999771 0.000060 -0.000119 0.392345 -5.003130 -4.630530 139.999771
9 139.999771 0.000060 -0.000119 0.648750 -3.796101 -5.321552 139.999771
[Rope3_Seg08]
8 139.999985 -0.000060 0.000000 0.505058 -2.693649 -2.469113 139.999985
9 139.999985 -0.000060 0.000000 0.579448 -2.106211 -2.898104 139.999985
[Rope3_Seg09]
8 90.185997 -0.000179 -0.000060 89.793228 -1.359877 -0.847183 90.185997
9 90.185997 -0.000179 -0.000060 89.793228 -1.359877 -0.847183 90.185997
[R_rear_hand01]
8 103.366196 -6.073594 -10.757982 173.606583 -15.279550 -74.048500 104.101845
9 103.366196 -6.073594 -10.757982 174.454865 -15.369205 -72.481903 104.101845
[R_rear_hand02]
8 100.509819 12.039542 -7.992327 -14.131634 36.459908 70.059998 101.543350
9 100.509819 12.039542 -7.992327 -15.526566 35.959644 67.697319 101.543350
[R_rear_hand03]
8 101.539970 5.215704 5.435467 73.022980 -70.158020 19.886856 101.819031
9 101.539970 5.215704 5.435467 74.484848 -68.272499 18.324223 101.819031
[Rope4_Seg01]
8 -0.000019 -0.000039 -0.000153 -101.644867 -9.399953 -73.561989 0.000159
9 -0.000019 -0.000044 -0.000153 -101.965149 -9.868111 -70.045288 0.000160
[Rope4_Seg02]
8 139.999985 0.000060 0.000119 -4.669693 13.535414 -4.286815 139.999985
9 139.999985 0.000060 0.000119 -6.951696 15.650209 -6.473295 139.999985
[Rope4_Seg03]
8 139.999924 0.000000 -0.000238 -4.572544 27.933596 -8.352500 139.999924
9 139.999924 0.000000 -0.000238 -6.820010 33.009739 -12.062409 139.999924
[Rope4_Seg04]
8 139.999985 0.000000 0.000119 2.731222 27.679640 -11.704537 139.999985
9 139.999985 0.000000 0.000119 3.170645 25.436533 -10.091597 139.999985
[Rope4_Seg05]
8 139.999802 -0.000060 -0.000119 9.347835 26.211634 -0.186270 139.999802
9 139.999802 -0.000060 -0.000119 9.216908 23.849709 -3.378740 139.999802
[Rope4_Seg06]
8 139.999924 0.000000 0.000060 48.955448 35.776890 1.347561 139.999924
9 139.999924 0.000000 0.000060 40.876816 34.758171 -7.483003 139.999924
[Rope4_Seg07]
8 139.999802 0.000000 0.000000 48.129467 9.714228 -12.085567 139.999802
9 139.999802 0.000000 0.000000 33.045757 9.369425 -13.965613 139.999802
[Rope4_Seg08]
8 139.999924 0.000000 0.000119 10.870708 -1.251298 -6.330836 139.999924
9 139.999924 0.000000 0.000119 8.662149 -0.135052 -6.583973 139.999924
[Rope4_Seg09]
8 90.185791 0.000060 0.000060 -135.617828 2.228885 0.850567 90.185791
9 90.185791 0.000060 0.000060 -135.617828 2.228885 0.850567 90.185791
[L_rear_hand01]
8 101.696655 -8.392275 -7.654577 -17.565516 -35.113850 115.806488 102.329041
9 101.696655 -8.392275 -7.654577 -21.754822 -32.891220 123.292305 102.329041
[L_rear_hand02]
8 102.726799 -1.568258 5.773216 76.237793 65.389854 163.579773 102.900848
9 102.726799 -1.568258 5.773216 78.924988 58.957436 166.614059 102.900848
[L_rear_hand03]
8 104.552910 9.721220 -10.420293 -174.689285 -24.125307 -113.408821 105.519653
9 104.552910 9.721220 -10.420293 -171.809479 -23.347528 -120.557556 105.519653
